<svg
        xmlns="http://www.w3.org/2000/svg"
        width="28"
        height="28"
        viewBox="0 0 250 250"
        fill="none"
      >
        <path
          fill="#A6A385"
          d="M132.12 245.31l-6.36-2.17c0 0 .78-32.42-10.86-34.74-7.76-9-1.24-381.55 29.16-1.24 0 0-9.62 4.81-11.32 13.03-1.86 8.07-.62 25.13-.62 25.13l0 0l0 0z"
        />
        <path
          fill="#499D4A"
          d="M133.22 217.98c0 0 62.15-34.94 43.96-116.75-12.56-55.37-42.19-73.52-45.44-80.5-3.57-4.96-6.98-13.65-6.98-13.65l2.33 154c0 .16-6.25 51.04 6.01 56.78"
        />
        <path
          fill="#58AA50"
          d="M122.5 216c0 0-52.27-35.67-49.17-98.49 2.95-62.82 39.86-93.68 46.99-99.27 4.65-4.96 4.81-6.82 5.12-11.79a1217 1217 0 003 .01s3 .01,6 .01c3 .01,6 .01,6 .01s3 .02,3 .02s3 .02,3 .02s0 .01,0 .01s0 .01,0 .01s0 .01,0 .01s0 .01,0 .01s-.03-.02-.03-.02l-.02-.02l3-.02s3-.02,3-.02s3-.02,3-.02s0 .01,0 .01s0 .01,0 .01s0 .01,0 .01z"
        />
      </svg>